# xmcd
# Copyright (C) 1995-1998 Ti Kan
#
# Track frame offsets:
#       150
#       16228
#       31534
#       47239
#       63046
#       75361
#       88638
#       101247
#       115603
#       132512
#       146805
#       159414
#       172381
#       189239
#       214340
#       252508
#
# Disc length: 3764 seconds
#
# Revision: 1
# Processed by: cddbd v1.5.2PL0 Copyright (c) Steve Scherf et al.
# Submitted via: CD-Import v1.0
#
DISCID=d70eb210
DTITLE=Two Door Cinema Club - Undercover Martyn Ep
DYEAR=2010
DGENRE=
TTITLE0=Cigarettes In The Theatre
TTITLE1=Come Back Home
TTITLE2=Do You Want It All
TTITLE3=This Is The Life
TTITLE4=Something Good Can Work
TTITLE5=I Can Talk
TTITLE6=Undercover Martyn
TTITLE7=What You Know
TTITLE8=Eat That Up, It's Good For You
TTITLE9=You're Not Stubborn
TTITLE10=Undercover Martyn (Album Version)
TTITLE11=Undercover Martyn (Zdar Re-Rub)
TTITLE12=Undercover Martyn (Jupiter Remix)
TTITLE13=Undercover Martyn (Skellington Remix)
TTITLE14=Undercover Martyn (Whatever Remix)
TTITLE15=Undercover Martyn (Softwar Remix)
EXTD=
EXTT0=
EXTT1=
EXTT2=
EXTT3=
EXTT4=
EXTT5=
EXTT6=
EXTT7=
EXTT8=
EXTT9=
EXTT10=
EXTT11=
EXTT12=
EXTT13=
EXTT14=
EXTT15=
PLAYORDER=
